<!-- Generated by IcoMoon.io -->
<svg version="1.1" xmlns="http://www.w3.org/2000/svg" width="30" height="60" viewBox="0 0 30 60" fill="#fff">
<title>facebook</title>
<path d="M30 12.36c0 0-8.52 0-8.52 0-0.56 0-1.060 0.3-1.5 0.9s-0.66 1.34-0.66 2.22c0 0 0 6.12 0 6.12s10.68 0 10.68 0c0 0 0 8.88 0 8.88s-10.68 0-10.68 0c0 0 0 26.52 0 26.52s-10.2 0-10.2 0c0 0 0-26.52 0-26.52s-9.12 0-9.12 0c0 0 0-8.88 0-8.88s9.12 0 9.12 0c0 0 0-5.16 0-5.16 0-3.76 1.18-6.94 3.54-9.54s5.3-3.9 8.82-3.9c0 0 8.52 0 8.52 0s0 9.36 0 9.36c0 0 0 0 0 0z"></path>
</svg>
