<!-- Generated by IcoMoon.io -->
<svg version="1.1" xmlns="http://www.w3.org/2000/svg" width="60" height="60" viewBox="0 0 60 60">
<title>instagram</title>
<path fill="none" stroke-linejoin="round" stroke-linecap="round" stroke-miterlimit="4" stroke-width="5" stroke="#fff" d="M17.5 5h25c6.904 0 12.5 5.596 12.5 12.5v25c0 6.904-5.596 12.5-12.5 12.5h-25c-6.904 0-12.5-5.596-12.5-12.5v-25c0-6.904 5.596-12.5 12.5-12.5z"></path>
<path fill="none" stroke-linejoin="round" stroke-linecap="round" stroke-miterlimit="4" stroke-width="5" stroke="#fff" d="M40 28.425c0.069 0.441 0.108 0.949 0.108 1.467 0 5.523-4.477 10-10 10s-10-4.477-10-10c0-5.523 4.477-10 10-10 0.518 0 1.026 0.039 1.522 0.115l-0.056-0.007c4.359 0.664 7.761 4.066 8.418 8.369l0.007 0.056z"></path>
<path fill="none" stroke-linejoin="round" stroke-linecap="round" stroke-miterlimit="4" stroke-width="5" stroke="#fff" d="M43.75 16.25v0"></path>
</svg>
